<svg width="1600" height="900" viewBox="0 0 1600 900" xmlns="http://www.w3.org/2000/svg" preserveAspectRatio="xMidYMid slice">
  <defs>
    <linearGradient id="sky" x1="0" y1="0" x2="0" y2="1">
      <stop offset="0" stop-color="#dbe9f5"/>
      <stop offset="0.55" stop-color="#aecbe3"/>
      <stop offset="1" stop-color="#7fa3c4"/>
    </linearGradient>
    <linearGradient id="hillsFar" x1="0" y1="0" x2="0" y2="1">
      <stop offset="0" stop-color="#7d9ab5"/>
      <stop offset="1" stop-color="#6a88a3"/>
    </linearGradient>
    <linearGradient id="hillsNear" x1="0" y1="0" x2="0" y2="1">
      <stop offset="0" stop-color="#4f6d89"/>
      <stop offset="1" stop-color="#3f5a74"/>
    </linearGradient>
    <linearGradient id="ground" x1="0" y1="0" x2="0" y2="1">
      <stop offset="0" stop-color="#31485f"/>
      <stop offset="1" stop-color="#243a52"/>
    </linearGradient>
  </defs>
  <rect width="1600" height="900" fill="url(#sky)"/>
  <circle cx="800" cy="330" r="150" fill="#f2f8fd" opacity="0.9"/>
  <circle cx="800" cy="330" r="230" fill="#f2f8fd" opacity="0.25"/>
  <path d="M0 520 Q200 440 420 500 T900 480 T1600 500 V900 H0 Z" fill="url(#hillsFar)"/>
  <path d="M0 620 Q300 540 620 600 T1230 590 T1600 620 V900 H0 Z" fill="url(#hillsNear)"/>
  <g fill="#1d3651">
    <rect x="700" y="470" width="200" height="150" rx="4"/>
    <path d="M680 480 L800 400 L920 480 Z"/>
    <rect x="775" y="540" width="50" height="80" rx="3" fill="#dbe9f5" opacity="0.85"/>
    <rect x="796" y="352" width="8" height="42"/>
    <rect x="782" y="366" width="36" height="8"/>
  </g>
  <path d="M0 700 Q400 640 800 680 T1600 660 V900 H0 Z" fill="url(#ground)"/>
</svg>
