<svg width="1600" height="900" viewBox="0 0 1600 900" xmlns="http://www.w3.org/2000/svg" preserveAspectRatio="xMidYMid slice">
  <defs>
    <linearGradient id="sky" x1="0" y1="0" x2="0" y2="1">
      <stop offset="0" stop-color="#cfe0ee"/>
      <stop offset="0.7" stop-color="#a9c4dc"/>
      <stop offset="1" stop-color="#93b1cc"/>
    </linearGradient>
    <linearGradient id="lot" x1="0" y1="0" x2="0" y2="1">
      <stop offset="0" stop-color="#5b6a7a"/>
      <stop offset="1" stop-color="#3e4d5e"/>
    </linearGradient>
    <linearGradient id="wall" x1="0" y1="0" x2="0" y2="1">
      <stop offset="0" stop-color="#f0e7d1"/>
      <stop offset="1" stop-color="#e3d5b8"/>
    </linearGradient>
  </defs>

  <!-- sky -->
  <rect width="1600" height="900" fill="url(#sky)"/>

  <!-- clouds -->
  <g fill="#ffffff" opacity="0.55">
    <ellipse cx="260" cy="130" rx="150" ry="34"/>
    <ellipse cx="360" cy="100" rx="110" ry="28"/>
    <ellipse cx="900" cy="90" rx="180" ry="30"/>
    <ellipse cx="1020" cy="120" rx="130" ry="26"/>
    <ellipse cx="1400" cy="170" rx="150" ry="30"/>
    <ellipse cx="600" cy="200" rx="120" ry="22" opacity="0.7"/>
  </g>

  <g transform="translate(0,110)">
  <!-- distant trees, right edge -->
  <g fill="#6f8b7d">
    <circle cx="1545" cy="380" r="70"/>
    <circle cx="1600" cy="330" r="80"/>
    <circle cx="1590" cy="430" r="60"/>
  </g>

  <!-- main building (left + middle) -->
  <rect x="100" y="438" width="1090" height="240" fill="url(#wall)"/>
  <!-- roof band -->
  <rect x="88" y="408" width="1112" height="34" fill="#453f36"/>
  <rect x="100" y="442" width="1090" height="8" fill="#d5c5a4"/>

  <!-- right wing, slightly taller -->
  <rect x="1190" y="418" width="300" height="260" fill="url(#wall)"/>
  <rect x="1178" y="386" width="324" height="32" fill="#453f36"/>
  <rect x="1190" y="418" width="300" height="8" fill="#d5c5a4"/>

  <!-- left wing windows -->
  <g>
    <g fill="#22364a">
      <rect x="170" y="490" width="74" height="92" rx="3"/>
      <rect x="290" y="490" width="74" height="92" rx="3"/>
      <rect x="410" y="490" width="74" height="92" rx="3"/>
      <rect x="700" y="490" width="74" height="92" rx="3"/>
      <rect x="800" y="490" width="74" height="92" rx="3"/>
    </g>
    <g fill="#8fb3d4" opacity="0.35">
      <rect x="176" y="496" width="28" height="80"/>
      <rect x="296" y="496" width="28" height="80"/>
      <rect x="416" y="496" width="28" height="80"/>
      <rect x="706" y="496" width="28" height="80"/>
      <rect x="806" y="496" width="28" height="80"/>
    </g>
    <g fill="#ffffff">
      <rect x="164" y="582" width="86" height="7" rx="2"/>
      <rect x="284" y="582" width="86" height="7" rx="2"/>
      <rect x="404" y="582" width="86" height="7" rx="2"/>
      <rect x="694" y="582" width="86" height="7" rx="2"/>
      <rect x="794" y="582" width="86" height="7" rx="2"/>
    </g>
  </g>

  <!-- entry door, left wing -->
  <rect x="545" y="486" width="96" height="192" fill="#1c2f42"/>
  <rect x="551" y="492" width="38" height="180" fill="#2c4964"/>
  <rect x="595" y="492" width="38" height="180" fill="#2c4964"/>
  <rect x="589" y="492" width="4" height="180" fill="#1c2f42"/>

  <!-- recessed courtyard section with glass walls -->
  <rect x="880" y="470" width="310" height="208" fill="#d9c9a8"/>
  <g fill="#26405a">
    <rect x="896" y="486" width="62" height="176"/>
    <rect x="970" y="486" width="62" height="176"/>
    <rect x="1044" y="486" width="62" height="176"/>
    <rect x="1118" y="486" width="56" height="176"/>
  </g>
  <g fill="#8fb3d4" opacity="0.3">
    <rect x="902" y="492" width="24" height="164"/>
    <rect x="976" y="492" width="24" height="164"/>
    <rect x="1050" y="492" width="24" height="164"/>
    <rect x="1124" y="492" width="20" height="164"/>
  </g>
  <!-- patio furniture silhouettes -->
  <g fill="#1d3145">
    <rect x="920" y="640" width="52" height="5" rx="2"/>
    <rect x="943" y="644" width="6" height="20"/>
    <rect x="1010" y="640" width="52" height="5" rx="2"/>
    <rect x="1033" y="644" width="6" height="20"/>
    <rect x="1100" y="640" width="52" height="5" rx="2"/>
    <rect x="1123" y="644" width="6" height="20"/>
  </g>
  <!-- lawn strip in front of courtyard -->
  <rect x="880" y="664" width="310" height="26" fill="#7d9a72"/>

  <!-- courtyard tree -->
  <rect x="1076" y="560" width="9" height="110" fill="#4b4237"/>
  <circle cx="1080" cy="540" r="46" fill="#6f8b7d"/>
  <circle cx="1052" cy="562" r="30" fill="#7d9a8c"/>
  <circle cx="1110" cy="565" r="28" fill="#7d9a8c"/>

  <!-- right wing arches -->
  <path d="M1226 678 V538 A44 44 0 0 1 1314 538 V678 Z" fill="#d9c9a8"/>
  <path d="M1236 678 V544 A34 34 0 0 1 1304 544 V678 Z" fill="#1f3348"/>
  <path d="M1338 660 V560 A28 28 0 0 1 1394 560 V660 Z" fill="#d9c9a8"/>
  <path d="M1346 660 V564 A20 20 0 0 1 1386 564 V660 Z" fill="#26405a"/>
  <path d="M1414 660 V560 A28 28 0 0 1 1470 560 V660 Z" fill="#d9c9a8"/>
  <path d="M1422 660 V564 A20 20 0 0 1 1462 564 V660 Z" fill="#26405a"/>
  <rect x="1332" y="660" width="68" height="7" rx="2" fill="#ffffff"/>
  <rect x="1408" y="660" width="68" height="7" rx="2" fill="#ffffff"/>

  <!-- lettering on right wing -->
  <g fill="#4a4437" font-family="Georgia, 'Times New Roman', serif" text-anchor="middle" letter-spacing="2">
    <text x="1340" y="466" font-size="19" font-weight="bold">CHRISTIAN</text>
    <text x="1340" y="490" font-size="19" font-weight="bold">ASSEMBLY HALL</text>
  </g>
  <text x="1478" y="446" font-size="17" font-family="Georgia, serif" fill="#4a4437" text-anchor="end" letter-spacing="1">S. 418</text>

  <!-- soft shadow under eaves/building -->
  <rect x="100" y="672" width="1390" height="10" fill="#1d3145" opacity="0.15"/>

  <!-- parking lot -->
  <rect x="0" y="682" width="1600" height="218" fill="url(#lot)"/>
  <g stroke="#e8eef4" stroke-width="5" opacity="0.7" stroke-linecap="round">
    <line x1="150" y1="770" x2="120" y2="860"/>
    <line x1="360" y1="770" x2="340" y2="860"/>
    <line x1="570" y1="770" x2="560" y2="860"/>
    <line x1="780" y1="770" x2="780" y2="860"/>
    <line x1="990" y1="770" x2="1000" y2="860"/>
    <line x1="1200" y1="770" x2="1220" y2="860"/>
    <line x1="1410" y1="770" x2="1440" y2="860"/>
  </g>

  <!-- hedge row -->
  <g>
    <path d="M0 726 Q40 690 90 714 Q140 686 190 712 Q240 684 290 710 Q340 686 390 712 Q440 684 490 710 Q540 686 590 712 Q640 684 690 710 Q740 686 790 712 Q840 684 890 710 Q940 686 990 712 Q1040 684 1090 710 Q1140 686 1190 712 Q1240 684 1290 710 Q1340 686 1390 712 Q1440 684 1490 710 Q1540 686 1600 714 V760 H0 Z" fill="#5c7a68"/>
    <path d="M0 748 Q50 716 100 740 Q150 712 200 738 Q250 710 300 736 Q350 712 400 738 Q450 710 500 736 Q550 712 600 738 Q650 710 700 736 Q750 712 800 738 Q850 710 900 736 Q950 712 1000 738 Q1050 710 1100 736 Q1150 712 1200 738 Q1250 710 1300 736 Q1350 712 1400 738 Q1450 710 1500 736 Q1550 712 1600 740 V790 H0 Z" fill="#4a6656"/>
  </g>

  <!-- lamp posts -->
  <g fill="#1d2c3c">
    <rect x="262" y="574" width="7" height="130"/>
    <rect x="252" y="556" width="27" height="26" rx="6"/>
    <rect x="248" y="550" width="35" height="7" rx="3"/>
    <rect x="952" y="574" width="7" height="130"/>
    <rect x="942" y="556" width="27" height="26" rx="6"/>
    <rect x="938" y="550" width="35" height="7" rx="3"/>
    <rect x="1512" y="574" width="7" height="130"/>
    <rect x="1502" y="556" width="27" height="26" rx="6"/>
    <rect x="1498" y="550" width="35" height="7" rx="3"/>
  </g>
  <g fill="#f4e9c8" opacity="0.85">
    <rect x="256" y="560" width="19" height="18" rx="4"/>
    <rect x="946" y="560" width="19" height="18" rx="4"/>
    <rect x="1506" y="560" width="19" height="18" rx="4"/>
  </g>
  </g>
</svg>
